<svg width="46" height="43" viewBox="0 0 46 43" fill="none" xmlns="http://www.w3.org/2000/svg">
<path d="M6.67963 8.84669L12.8192 2.70711C13.2097 2.31658 13.8429 2.31658 14.2334 2.70711L21.2403 9.71395C21.6308 10.1045 21.6308 10.7376 21.2403 11.1282L16.6509 15.7175C16.0422 16.3263 15.8913 17.2562 16.2762 18.0262L16.4135 18.3006C18.639 22.7518 22.2483 26.361 26.6994 28.5865L26.9738 28.7238C27.7438 29.1087 28.6737 28.9578 29.2825 28.3491L33.8718 23.7597C34.2624 23.3692 34.8955 23.3692 35.2861 23.7597L42.2929 30.7666C42.6834 31.1571 42.6834 31.7903 42.2929 32.1808L36.1533 38.3204C34.042 40.4317 30.6994 40.6693 28.3107 38.8777L18.2602 31.3399C16.5166 30.0322 14.9678 28.4834 13.6601 26.7398L6.12226 16.6893C4.33072 14.3006 4.56827 10.958 6.67963 8.84669Z" fill="#C5C5C5"/>
</svg>
