<svg width="40" height="44" viewBox="0 0 40 44" fill="none" xmlns="http://www.w3.org/2000/svg">
<path fill-rule="evenodd" clip-rule="evenodd" d="M40 17.5C40 10.4777 40 6.96653 38.3147 4.4443C37.5851 3.3524 36.6476 2.41489 35.5557 1.6853C33.0335 0 29.5223 0 22.5 0H17.5C10.4777 0 6.96653 0 4.4443 1.6853C3.3524 2.41489 2.41489 3.3524 1.6853 4.4443C0 6.96653 0 10.4777 0 17.5C0 24.5223 0 28.0335 1.6853 30.5557C2.41489 31.6476 3.3524 32.5851 4.4443 33.3147C6.64768 34.7869 9.60574 34.9731 15 34.9966V35L19.1056 43.2111C19.4741 43.9482 20.5259 43.9482 20.8944 43.2111L25 35V34.9966C30.3943 34.9731 33.3523 34.7869 35.5557 33.3147C36.6476 32.5851 37.5851 31.6476 38.3147 30.5557C40 28.0335 40 24.5223 40 17.5ZM10 20C11.3807 20 12.5 18.8807 12.5 17.5C12.5 16.1193 11.3807 15 10 15C8.61929 15 7.5 16.1193 7.5 17.5C7.5 18.8807 8.61929 20 10 20ZM22.5 17.5C22.5 18.8807 21.3807 20 20 20C18.6193 20 17.5 18.8807 17.5 17.5C17.5 16.1193 18.6193 15 20 15C21.3807 15 22.5 16.1193 22.5 17.5ZM32.5 17.5C32.5 18.8807 31.3807 20 30 20C28.6193 20 27.5 18.8807 27.5 17.5C27.5 16.1193 28.6193 15 30 15C31.3807 15 32.5 16.1193 32.5 17.5Z" fill="#C5C5C5"/>
</svg>
