<svg width="40" height="29" viewBox="0 0 40 29" fill="none" xmlns="http://www.w3.org/2000/svg">
<path fill-rule="evenodd" clip-rule="evenodd" d="M0.87868 1.01247C0 1.89115 0 3.30536 0 6.13379V22.8664C0 25.6948 0 27.109 0.87868 27.9877C1.75736 28.8664 3.17157 28.8664 6 28.8664H34C36.8284 28.8664 38.2426 28.8664 39.1213 27.9877C40 27.109 40 25.6948 40 22.8664V6.13379C40 3.30536 40 1.89115 39.1213 1.01247C38.2426 0.133789 36.8284 0.133789 34 0.133789H6C3.17157 0.133789 1.75736 0.133789 0.87868 1.01247ZM7.45343 7.06742C6.74799 6.63308 5.82402 6.85285 5.38968 7.55829C4.95535 8.26373 5.17512 9.1877 5.88056 9.62204L18.6896 17.5085C19.4934 18.0034 20.5073 18.0034 21.3111 17.5085L34.1201 9.62204C34.8255 9.1877 35.0453 8.26373 34.611 7.55829C34.1766 6.85285 33.2527 6.63308 32.5472 7.06742L20.0003 14.7925L7.45343 7.06742Z" fill="#C5C5C5"/>
</svg>
